<svg width="58" height="58" viewBox="0 0 58 58" fill="none" xmlns="http://www.w3.org/2000/svg">
<g clip-path="url(#clip0_198:8258)" filter="url(#filter0_d_198:8258)">
<path d="M26.3972 44.788C21.5163 44.788 17.5437 40.8153 17.5437 35.9344V6.28906L7.48019 8.59295C4.99283 9.24711 3.50141 11.8115 4.15939 14.3218L12.7879 46.5376C13.3608 48.621 15.2753 49.9999 17.3293 49.9999C17.7145 49.9999 18.1063 49.9519 18.4938 49.85L39.492 44.788H26.3972Z" fill="#B0BEC5"/>
<path d="M53.9993 5.72882V35.9345C53.9993 39.1008 51.4368 41.6633 48.2705 41.6633H26.3973C24.2517 41.6633 22.3769 40.4759 21.3978 38.7259C20.9393 37.9134 20.6685 36.9552 20.6685 35.9345V5.72882C20.6685 2.56212 23.231 0 26.3973 0H48.2705C51.4368 0 53.9993 2.56212 53.9993 5.72882Z" fill="#ECEFF1"/>
<path d="M35.2509 14.5821C35.2509 16.8833 33.3856 18.7485 31.0844 18.7485C28.7836 18.7485 26.918 16.8833 26.918 14.5821C26.918 12.2812 28.7836 10.416 31.0844 10.416C33.3856 10.416 35.2509 12.2812 35.2509 14.5821Z" fill="#FFC107"/>
<path d="M53.9994 24.8729V35.9346C53.9994 39.1009 51.4369 41.6634 48.2706 41.6634H26.3975C24.2519 41.6634 22.3771 40.476 21.3979 38.7259L42.0421 18.0817C43.4584 16.6655 45.7917 16.6655 47.2083 18.0817L53.9994 24.8729Z" fill="#388E3C"/>
<path d="M47.8745 41.6635H26.3973C24.2517 41.6635 22.3769 40.4761 21.3978 38.726C20.9393 37.9136 20.6685 36.9554 20.6685 35.9347V31.1225L26.4183 25.373C27.8345 23.9564 30.1678 23.9564 31.5844 25.373L47.8745 41.6635Z" fill="#4CAF50"/>
</g>
<defs>
<filter id="filter0_d_198:8258" x="0" y="0" width="58" height="58" filterUnits="userSpaceOnUse" color-interpolation-filters="sRGB">
<feFlood flood-opacity="0" result="BackgroundImageFix"/>
<feColorMatrix in="SourceAlpha" type="matrix" values="0 0 0 0 0 0 0 0 0 0 0 0 0 0 0 0 0 0 127 0" result="hardAlpha"/>
<feOffset dy="4"/>
<feGaussianBlur stdDeviation="2"/>
<feComposite in2="hardAlpha" operator="out"/>
<feColorMatrix type="matrix" values="0 0 0 0 0 0 0 0 0 0 0 0 0 0 0 0 0 0 0.25 0"/>
<feBlend mode="normal" in2="BackgroundImageFix" result="effect1_dropShadow_198:8258"/>
<feBlend mode="normal" in="SourceGraphic" in2="effect1_dropShadow_198:8258" result="shape"/>
</filter>
<clipPath id="clip0_198:8258">
<rect width="50" height="50" fill="white" transform="translate(4)"/>
</clipPath>
</defs>
</svg>
