<svg width="18" height="20" viewBox="0 0 18 20" fill="none" xmlns="http://www.w3.org/2000/svg">
<path fill-rule="evenodd" clip-rule="evenodd" d="M4.7688 6.71387H13.2312C15.5886 6.71387 17.5 8.58307 17.5 10.8885V15.8254C17.5 18.1308 15.5886 20 13.2312 20H4.7688C2.41136 20 0.5 18.1308 0.5 15.8254V10.8885C0.5 8.58307 2.41136 6.71387 4.7688 6.71387ZM8.99492 15.3295C9.49283 15.3295 9.88912 14.9419 9.88912 14.455V12.2489C9.88912 11.772 9.49283 11.3844 8.99492 11.3844C8.50717 11.3844 8.11088 11.772 8.11088 12.2489V14.455C8.11088 14.9419 8.50717 15.3295 8.99492 15.3295Z" fill="url(#paint0_linear)"/>
<path opacity="0.4" d="M14.523 5.39595V6.86667C14.1673 6.7673 13.7913 6.71761 13.4052 6.71761H12.7447V5.39595C12.7447 3.37868 11.0681 1.73903 9.00533 1.73903C6.94257 1.73903 5.26594 3.36874 5.25578 5.37608V6.71761H4.60545C4.20916 6.71761 3.83319 6.7673 3.47754 6.87661V5.39595C3.4877 2.41476 5.95692 0 8.98501 0C12.0537 0 14.523 2.41476 14.523 5.39595Z" fill="url(#paint1_linear)"/>
<defs>
<linearGradient id="paint0_linear" x1="0.5" y1="5.89805" x2="19.8361" y2="9.73131" gradientUnits="userSpaceOnUse">
<stop stop-color="#53E88B"/>
<stop offset="1" stop-color="#15BE77"/>
</linearGradient>
<linearGradient id="paint1_linear" x1="3.47754" y1="-0.422248" x2="15.773" y2="2.63763" gradientUnits="userSpaceOnUse">
<stop stop-color="#53E88B"/>
<stop offset="1" stop-color="#15BE77"/>
</linearGradient>
</defs>
</svg>
